# xmcd
#
# Track frame offsets: 
#        150
#        11450
#        24730
#        33420
#        44855
#        57993
#        68613
#        80175
#        95125
#        106055
#        120175
#        131890
#        153335
#        173685
#        185155
#        195523
#        207720
#        220685
#        237380
#        255233
#        268680
#        281300
#
# Disc length: 4008 seconds
#
# Revision: 4
# Processed by: cddbd v1.5.2PL0 Copyright (c) Steve Scherf et al.
# Submitted via: ExactAudioCopy v0.95b4
#
DISCID=3e0fa616
DTITLE=Sonny Boy Williamson II - Help Me
DYEAR=1900
DGENRE=Blues
TTITLE0=Your Funeral and My Trial
TTITLE1=Wake Up Baby
TTITLE2=Checkin' Up On My Baby
TTITLE3=Down Child
TTITLE4=Too Young To Die
TTITLE5=Fattening Frogs for Snakes
TTITLE6=Don't start me to talkin'
TTITLE7=The sky is crying
TTITLE8=Got to move
TTITLE9=Help Me
TTITLE10=Bring it on Home
TTITLE11=The story of Sonny Boy Williamson
TTITLE12=When the lights went out
TTITLE13=Keep it to yourself
TTITLE14=Sonny's Rhythm
TTITLE15=Bye Bye Bird
TTITLE16=Work with Me
TTITLE17=Movin Down the River Rhine
TTITLE18=I Wonder do I have a friend
TTITLE19=Eyesight to the blind
TTITLE20=Mightly Long Time
TTITLE21=Nine Below Zero
EXTD=subtitle: "The Harp from Deep South"
EXTT0=
EXTT1=
EXTT2=
EXTT3=
EXTT4=
EXTT5=
EXTT6=
EXTT7=
EXTT8=
EXTT9=
EXTT10=
EXTT11=
EXTT12=
EXTT13=
EXTT14=
EXTT15=
EXTT16=
EXTT17=
EXTT18=
EXTT19=
EXTT20=
EXTT21=
PLAYORDER=
